<?xml version="1.0" standalone="no"?>
<!DOCTYPE svg PUBLIC "-//W3C//DTD SVG 20010904//EN"
 "http://www.w3.org/TR/2001/REC-SVG-20010904/DTD/svg10.dtd">
<svg version="1.0" xmlns="http://www.w3.org/2000/svg"
 width="20.000000pt" height="20.000000pt" viewBox="0 0 20.000000 20.000000"
 preserveAspectRatio="xMidYMid meet">

<g transform="translate(0.000000,20.000000) scale(0.100000,-0.100000)"
fill="#000000" stroke="none">
<path d="M80 170 c-8 -20 -20 -30 -34 -30 -11 0 -28 -5 -36 -10 -12 -7 -11
-13 10 -35 18 -19 24 -35 21 -60 -3 -40 0 -41 34 -19 23 15 27 15 50 0 34 -22
37 -21 34 19 -3 25 3 41 21 60 21 22 22 28 10 35 -8 5 -25 10 -36 10 -14 0
-26 10 -34 30 -7 17 -16 30 -20 30 -4 0 -13 -13 -20 -30z m38 -25 c8 -18 19
-25 39 -25 l26 0 -22 -24 c-17 -18 -20 -30 -15 -52 l7 -28 -26 17 c-26 17 -28
17 -54 0 l-26 -17 7 28 c5 22 2 34 -15 52 l-22 24 26 0 c20 0 31 7 39 25 6 14
14 25 18 25 4 0 12 -11 18 -25z"/>
</g>
</svg>
