<?xml version="1.0" encoding="utf-8"?>
<!-- Generator: Adobe Illustrator 19.0.0, SVG Export Plug-In . SVG Version: 6.00 Build 0)  -->
<svg version="1.1" id="Layer_1" xmlns="http://www.w3.org/2000/svg" xmlns:xlink="http://www.w3.org/1999/xlink" x="0px" y="0px"
	 viewBox="0 0 595.3 841.9" style="enable-background:new 0 0 595.3 841.9;" xml:space="preserve">
<g id="XMLID_1_">
	<path id="XMLID_128_" d="M156.3,387.3c0-9.8,0-19.1,0-28.7c2.2-0.3,4.4-0.6,6.7-1c0.2,1.3,0.4,2.4,0.6,3.7
		c5.4-4.8,7.6-4.9,13.2-0.9c2.3-0.9,4.5-2.3,6.8-2.7c5.7-1,10.1,2.2,10.6,8.1c0.6,6.2,0.3,12.6,0.3,18.8c0,0.7-1.1,1.9-1.9,2.1
		c-1.9,0.4-3.8,0.4-6.1,0.5c0-5,0-9.7,0-14.3c0-1.1,0-2.2,0-3.3c-0.1-2.3-0.8-4.5-3.3-4.5c-2.6,0-3.6,2.2-3.7,4.7
		c-0.1,3.7,0,7.4,0,11.1c-0.1,6.8,0.7,5.8-5.8,6.2c-0.6,0-1.2,0-2.5,0c0-4.3,0-8.6,0-12.8c0-2,0.3-4-0.2-5.9
		c-0.4-1.3-1.7-3.1-2.8-3.2c-1.1-0.1-3,1.4-3.4,2.5c-0.7,1.9-0.5,4.1-0.6,6.2c-0.1,3.9,0,7.9,0,12.6
		C161.7,386.7,159.3,387,156.3,387.3z"/>
	<path id="XMLID_125_" d="M93.6,385.2c0,3.7,0,7.2,0,11.1c-2.8,0.4-5.2,0.7-8,1.1c0-13,0-25.7,0-38.7c2.2-0.3,4.6-0.7,7.2-1
		c0.2,1.6,0.4,3,0.6,4.5c6.5-5.3,11.5-5.9,16.7-2c5.4,4.1,7.7,12.1,5.2,18.3c-2.6,6.5-9.3,10.4-16,9.1
		C97.4,387.2,95.8,386.2,93.6,385.2z M102.1,381.4c2.6-3.6,4.7-6.3,6.4-9.2c0.5-0.9,0.3-2.9-0.4-3.6c-0.8-0.8-2.5-0.9-3.9-1.1
		c-1.3-0.2-2.6-0.1-4,0c-1.4,0.2-3.2,0.1-3.9,1c-0.7,0.8-1,2.9-0.4,3.9C97.5,375.2,99.6,377.7,102.1,381.4z"/>
	<path id="XMLID_122_" d="M210.6,347.6c0,4.3,0,8.2,0,12.6c5.9-3.6,11.4-3.5,16.5,0.3c5.6,4.3,7.5,12.4,4.7,18.6
		c-3,6.6-10.1,9.8-18,8.3c-6.9-1.3-11.2-6.5-11.4-14.3c-0.2-7.1,0.1-14.3-0.1-21.4c-0.1-2.9,0.9-4.1,3.7-3.9
		C207.3,347.9,208.6,347.7,210.6,347.6z M218.3,381.4c2.5-3.6,4.6-6.2,6.2-9c0.5-1,0.3-3.1-0.4-3.9c-0.8-0.8-2.6-0.8-3.9-0.9
		c-1.2-0.1-2.4-0.1-3.6,0c-1.5,0.2-3.4,0.1-4.2,1c-0.7,0.7-0.8,3-0.2,4C213.6,375.3,215.7,377.9,218.3,381.4z"/>
	<path id="XMLID_119_" d="M266.9,366.1c-6.2,4-12.2,7.9-18.6,12.1c5.1,4.1,9.2,1.7,13.6-0.8c1.3,1.9,2.6,3.8,3.8,5.6
		c-4.8,5.5-17.5,7.3-24.1-0.6c-5.7-6.8-4.4-16.9,2.8-22.1C251.7,355.1,261.8,357.5,266.9,366.1z M257.2,365.8
		c-3.1-2.1-5.5-1.9-7.8-0.3c-2.5,1.7-3.7,4-3.2,7.8C250,370.7,253.3,368.4,257.2,365.8z"/>
	<path id="XMLID_116_" d="M150.2,366.1c-6.2,4-12.2,7.9-18.3,11.9c3.6,3.6,5.9,3.4,13.2-0.5c1.3,1.9,2.7,3.9,4.1,5.8
		c-8.7,6.8-19.4,5.8-25.1-2c-4.9-6.7-3.1-16.3,3.9-21.2C135.3,355.1,144.8,357.5,150.2,366.1z M140.4,365.8c-2.9-2.1-5.3-2-7.6-0.4
		c-2.5,1.7-4,3.8-3.1,7.6C133.3,370.6,136.7,368.3,140.4,365.8z"/>
	<path id="XMLID_113_" d="M275,359.7c0.1,1.7,0.3,3.3,0.4,5.7c3.4-4,7.1-6.9,12-6.1c3.2,0.6,6.7,2.1,9.1,4.2
		c5.4,4.7,5.7,13.1,1.5,18.8c-4.9,6.7-12,7.1-22.4,1.2c-1.4,4.5,1.1,9.6-1.5,13.8c-0.4,0-0.8-0.1-1.3-0.1c-0.1-0.8-0.3-1.6-0.3-2.3
		c0-10.7,0-21.5,0.1-32.2c0-1.1,0.8-2.2,1.2-3.3C274.3,359.4,274.6,359.6,275,359.7z M286.5,385.1c6.7,0,11.9-5.1,11.9-11.6
		c0-6.5-5.1-11.7-11.3-11.8c-6.3-0.1-11.8,5.3-11.8,11.7C275.1,380,280,385,286.5,385.1z"/>
	<path id="XMLID_110_" d="M308.8,363c1.3-1.2,2.1-2.5,3.1-2.8c2.6-0.6,5.4-1.2,8-0.9c4.6,0.4,6.6,3.1,6.6,7.7c0,5.9,0.1,11.8,0,17.7
		c0,0.9-0.8,1.8-1.2,2.7c-0.7-0.6-1.4-1.3-1.5-1.4c-3.3,0.5-6.4,1.5-9.5,1.3c-2-0.1-4.1-1.6-5.6-3.1c-2.9-2.8-2.9-8.8-0.4-12.4
		c3-4.2,7-4.6,15.2-1.5c1.1-5.1,0.3-7.7-3.7-8.2C316.4,361.8,313,362.7,308.8,363z M316.7,385.1c4.2,0.1,6.9-2.5,7.1-6.7
		c0.1-4.5-2.8-7.6-7.1-7.6c-4.3,0-7.6,3.2-7.6,7.3C309,382.2,312,385,316.7,385.1z"/>
	<path id="XMLID_109_" d="M337.5,359.7c0.2,1,0.4,2.1,0.6,3c2.6-1.2,5-2.9,7.6-3.4c6-1.1,10.6,2.7,10.9,9c0.3,5.7,0.1,11.4,0,17
		c0,0.8-1,1.7-1.5,2.5c-0.4-0.1-0.7-0.3-1.1-0.4c0-5.9,0-11.7,0-17.6c0-5.6-2-7.9-6.8-8.2c-5-0.2-8.9,2.7-9.2,7.5
		c-0.3,4.9-0.1,9.9-0.2,14.8c0,1.2-0.5,2.4-1.6,3.4c-0.5-9.3-1.4-18.6-0.2-27.7C336.4,359.6,337,359.7,337.5,359.7z"/>
	<path id="XMLID_108_" d="M382.2,359.7c0,4.3,0,8.5,0,12.8c0,2,0,4,0.1,5.9c0.4,4.7,2.4,6.8,6.4,7.2c4.5,0.4,8-1.7,8.7-6.2
		c0.8-5.5,0.6-11,0.9-16.6c0.1-1.2,0.6-2.3,1.3-3.3c2.2,5.5,1.3,26.7-0.9,28.1c-0.2-1.2-0.4-2.4-0.7-4.2c-3.2,3.7-7,5-11.4,4.3
		c-3.8-0.6-6.4-3-6.6-6.8c-0.3-6.4-0.2-12.8-0.2-19.2c0-0.7,0.9-1.5,1.3-2.2C381.5,359.4,381.9,359.6,382.2,359.7z"/>
	<path id="XMLID_107_" d="M369.3,359.7c0,10.1,0.2,20.1-0.1,30.2c-0.1,4.2-3.6,7.3-7.8,7.3c-1,0-2-0.7-3.4-1.3c3-1.4,6-1.8,7-3.5
		c1.4-2.2,1.6-5.3,1.7-8.1c0.2-7.2,0-14.5,0.1-21.8c0-1.1,0.8-2.2,1.3-3.3C368.5,359.4,368.9,359.6,369.3,359.7z"/>
	<path id="XMLID_106_" d="M409.6,387.3c0-8.6,0-17.2,0.1-25.8c0-0.8,1-1.5,1.5-2.2c0.3,0.2,0.6,0.3,0.9,0.5c0.1,1.4,0.2,2.9,0.2,4.1
		c2.9-1.7,5.8-3.5,8.7-5.3c0.4,0.4,0.7,0.8,1.1,1.2c-0.5,0.7-0.9,1.7-1.6,2c-6.1,2.5-8.1,5.3-8.2,11.9c0,3.7,0.1,7.4,0,11.1
		c0,1-0.7,2-1.1,3C410.6,387.6,410.1,387.4,409.6,387.3z"/>
	<path id="XMLID_105_" d="M366.9,353.8c-0.7-2-1.3-4-2-6c1.9,0,3.8,0,5.7,0c-0.7,2-1.3,4-2,5.9C368,353.8,367.4,353.8,366.9,353.8z"
		/>
</g>
</svg>
