<?xml version="1.0" standalone="no"?>
<!DOCTYPE svg PUBLIC "-//W3C//DTD SVG 20010904//EN"
 "http://www.w3.org/TR/2001/REC-SVG-20010904/DTD/svg10.dtd">
<svg version="1.0" xmlns="http://www.w3.org/2000/svg"
 width="20.000000pt" height="20.000000pt" viewBox="0 0 20.000000 20.000000"
 preserveAspectRatio="xMidYMid meet">

<g transform="translate(0.000000,20.000000) scale(0.100000,-0.100000)"
fill="#000000" stroke="none">
<path d="M0 100 c0 -28 37 -76 69 -90 25 -10 37 -10 62 0 32 14 69 62 69 90 0
8 -9 -4 -19 -26 -36 -79 -126 -79 -162 0 -10 22 -19 34 -19 26z"/>
<path d="M79 46 c13 -5 29 -5 42 0 17 8 13 9 -21 9 -34 0 -38 -1 -21 -9z"/>
</g>
</svg>
